<mxfile host="app.diagrams.net" modified="2022-05-07T10:41:50.972Z" agent="5.0 (Windows NT 10.0; Win64; x64) AppleWebKit/537.36 (KHTML, like Gecko) Chrome/101.0.4951.54 Safari/537.36" etag="JS1nFADUT1nmSkmpI-hA" version="18.0.1" type="github">
  <diagram id="2iPVsTN-4OHwdi3Rr5Jb" name="第 1 页">
    <mxGraphModel dx="1052" dy="545" grid="1" gridSize="10" guides="1" tooltips="1" connect="1" arrows="1" fold="1" page="1" pageScale="1" pageWidth="827" pageHeight="1169" math="0" shadow="0">
      <root>
        <mxCell id="0" />
        <mxCell id="1" parent="0" />
        <mxCell id="sb8yaSYqoUK3CxO4F0hL-3" value="" style="edgeStyle=orthogonalEdgeStyle;rounded=0;orthogonalLoop=1;jettySize=auto;html=1;" edge="1" parent="1" source="sb8yaSYqoUK3CxO4F0hL-1" target="sb8yaSYqoUK3CxO4F0hL-2">
          <mxGeometry relative="1" as="geometry" />
        </mxCell>
        <mxCell id="sb8yaSYqoUK3CxO4F0hL-1" value="Arduino网关" style="rounded=0;whiteSpace=wrap;html=1;" vertex="1" parent="1">
          <mxGeometry x="200" y="100" width="320" height="60" as="geometry" />
        </mxCell>
        <mxCell id="sb8yaSYqoUK3CxO4F0hL-7" style="edgeStyle=orthogonalEdgeStyle;rounded=0;orthogonalLoop=1;jettySize=auto;html=1;exitX=0.5;exitY=1;exitDx=0;exitDy=0;entryX=0.5;entryY=0;entryDx=0;entryDy=0;" edge="1" parent="1" source="sb8yaSYqoUK3CxO4F0hL-2" target="sb8yaSYqoUK3CxO4F0hL-4">
          <mxGeometry relative="1" as="geometry" />
        </mxCell>
        <mxCell id="sb8yaSYqoUK3CxO4F0hL-8" style="edgeStyle=orthogonalEdgeStyle;rounded=0;orthogonalLoop=1;jettySize=auto;html=1;exitX=0.5;exitY=1;exitDx=0;exitDy=0;entryX=0.5;entryY=0;entryDx=0;entryDy=0;" edge="1" parent="1" source="sb8yaSYqoUK3CxO4F0hL-2" target="sb8yaSYqoUK3CxO4F0hL-5">
          <mxGeometry relative="1" as="geometry" />
        </mxCell>
        <mxCell id="sb8yaSYqoUK3CxO4F0hL-9" style="edgeStyle=orthogonalEdgeStyle;rounded=0;orthogonalLoop=1;jettySize=auto;html=1;exitX=0.5;exitY=1;exitDx=0;exitDy=0;entryX=0.5;entryY=0;entryDx=0;entryDy=0;" edge="1" parent="1" source="sb8yaSYqoUK3CxO4F0hL-2">
          <mxGeometry relative="1" as="geometry">
            <mxPoint x="570" y="310" as="targetPoint" />
          </mxGeometry>
        </mxCell>
        <mxCell id="sb8yaSYqoUK3CxO4F0hL-2" value="ZigBee协调器" style="rounded=0;whiteSpace=wrap;html=1;" vertex="1" parent="1">
          <mxGeometry x="200" y="190" width="320" height="60" as="geometry" />
        </mxCell>
        <mxCell id="sb8yaSYqoUK3CxO4F0hL-18" style="edgeStyle=orthogonalEdgeStyle;rounded=0;orthogonalLoop=1;jettySize=auto;html=1;exitX=0.5;exitY=1;exitDx=0;exitDy=0;entryX=0.5;entryY=0;entryDx=0;entryDy=0;" edge="1" parent="1" source="sb8yaSYqoUK3CxO4F0hL-4" target="sb8yaSYqoUK3CxO4F0hL-11">
          <mxGeometry relative="1" as="geometry" />
        </mxCell>
        <mxCell id="sb8yaSYqoUK3CxO4F0hL-4" value="ZIgBee节点1" style="rounded=0;whiteSpace=wrap;html=1;" vertex="1" parent="1">
          <mxGeometry x="90" y="310" width="120" height="60" as="geometry" />
        </mxCell>
        <mxCell id="sb8yaSYqoUK3CxO4F0hL-19" style="edgeStyle=orthogonalEdgeStyle;rounded=0;orthogonalLoop=1;jettySize=auto;html=1;exitX=0.5;exitY=1;exitDx=0;exitDy=0;entryX=0.5;entryY=0;entryDx=0;entryDy=0;" edge="1" parent="1" source="sb8yaSYqoUK3CxO4F0hL-5" target="sb8yaSYqoUK3CxO4F0hL-12">
          <mxGeometry relative="1" as="geometry" />
        </mxCell>
        <mxCell id="sb8yaSYqoUK3CxO4F0hL-5" value="ZIgBee节点2" style="rounded=0;whiteSpace=wrap;html=1;" vertex="1" parent="1">
          <mxGeometry x="300" y="310" width="120" height="60" as="geometry" />
        </mxCell>
        <mxCell id="sb8yaSYqoUK3CxO4F0hL-21" value="" style="edgeStyle=orthogonalEdgeStyle;rounded=0;orthogonalLoop=1;jettySize=auto;html=1;" edge="1" parent="1" source="sb8yaSYqoUK3CxO4F0hL-11" target="sb8yaSYqoUK3CxO4F0hL-20">
          <mxGeometry relative="1" as="geometry" />
        </mxCell>
        <mxCell id="sb8yaSYqoUK3CxO4F0hL-11" value="继电器1" style="rounded=0;whiteSpace=wrap;html=1;" vertex="1" parent="1">
          <mxGeometry x="120" y="400" width="60" height="50" as="geometry" />
        </mxCell>
        <mxCell id="sb8yaSYqoUK3CxO4F0hL-24" value="" style="edgeStyle=orthogonalEdgeStyle;rounded=0;orthogonalLoop=1;jettySize=auto;html=1;" edge="1" parent="1" source="sb8yaSYqoUK3CxO4F0hL-12" target="sb8yaSYqoUK3CxO4F0hL-22">
          <mxGeometry relative="1" as="geometry" />
        </mxCell>
        <mxCell id="sb8yaSYqoUK3CxO4F0hL-12" value="继电器2" style="rounded=0;whiteSpace=wrap;html=1;" vertex="1" parent="1">
          <mxGeometry x="330" y="400" width="60" height="50" as="geometry" />
        </mxCell>
        <mxCell id="sb8yaSYqoUK3CxO4F0hL-14" value="" style="rounded=0;whiteSpace=wrap;html=1;" vertex="1" parent="1">
          <mxGeometry x="520" y="340" width="20" height="20" as="geometry" />
        </mxCell>
        <mxCell id="sb8yaSYqoUK3CxO4F0hL-15" value="" style="rounded=0;whiteSpace=wrap;html=1;" vertex="1" parent="1">
          <mxGeometry x="560" y="340" width="20" height="20" as="geometry" />
        </mxCell>
        <mxCell id="sb8yaSYqoUK3CxO4F0hL-16" value="" style="rounded=0;whiteSpace=wrap;html=1;" vertex="1" parent="1">
          <mxGeometry x="600" y="340" width="20" height="20" as="geometry" />
        </mxCell>
        <mxCell id="sb8yaSYqoUK3CxO4F0hL-17" value="" style="rounded=0;whiteSpace=wrap;html=1;" vertex="1" parent="1">
          <mxGeometry x="640" y="340" width="20" height="20" as="geometry" />
        </mxCell>
        <mxCell id="sb8yaSYqoUK3CxO4F0hL-20" value="家电1" style="rounded=0;whiteSpace=wrap;html=1;" vertex="1" parent="1">
          <mxGeometry x="100" y="480" width="100" height="50" as="geometry" />
        </mxCell>
        <mxCell id="sb8yaSYqoUK3CxO4F0hL-22" value="家电2" style="rounded=0;whiteSpace=wrap;html=1;" vertex="1" parent="1">
          <mxGeometry x="310" y="480" width="100" height="50" as="geometry" />
        </mxCell>
      </root>
    </mxGraphModel>
  </diagram>
</mxfile>
